<svg id="fadfe8a6-0d04-4b4b-ae1c-b8d80f242048" data-name="ｷｹﾀﾌｾ硺1" xmlns="http://www.w3.org/2000/svg" width="73.34" height="63.01" viewBox="0 0 73.34 63.01"><title>icon-book</title><path d="M294.21,641.7a3.86,3.86,0,0,1-3.75-2.92L277.73,589a3.86,3.86,0,0,1,2.8-4.71l12.5-3.2a4,4,0,0,1,1-.12,3.88,3.88,0,0,1,3.76,2.91l12.72,49.82a3.79,3.79,0,0,1-.42,2.92,3.86,3.86,0,0,1-2.37,1.79l-12.51,3.2A3.89,3.89,0,0,1,294.21,641.7ZM294,584l-.19,0-12.51,3.2a.79.79,0,0,0-.56.94L293.46,638a.79.79,0,0,0,.94.56l12.51-3.19a.75.75,0,0,0,.47-.37.69.69,0,0,0,.09-.57l-12.72-49.82A.79.79,0,0,0,294,584Z" transform="translate(-277.11 -579.19)" fill="#606060" stroke="#606060" stroke-miterlimit="10"/><path d="M299.45,617.33a2.32,2.32,0,0,1-1.68,2.82l-3,.76a2.33,2.33,0,0,1-2.82-1.68l-6.74-26.68a2.33,2.33,0,0,1,1.68-2.83l3-.76a2.33,2.33,0,0,1,2.82,1.69Z" transform="translate(-277.11 -579.19)" fill="#606060"/><path d="M302.09,628.55a3.58,3.58,0,1,1-4.36-2.59A3.6,3.6,0,0,1,302.09,628.55Z" transform="translate(-277.11 -579.19)" fill="#606060"/><path d="M312.82,639h0a3.89,3.89,0,0,1-3.88-3.87l-.14-51.41a3.89,3.89,0,0,1,3.87-3.89l12.91,0a3.88,3.88,0,0,1,3.88,3.87l.14,51.41a3.88,3.88,0,0,1-3.87,3.88Zm12.77-56.1-12.92,0a.79.79,0,0,0-.77.78L312,635.1a.79.79,0,0,0,.78.78l12.9,0a.79.79,0,0,0,.78-.78l-.13-51.41A.79.79,0,0,0,325.59,582.88Z" transform="translate(-277.11 -579.19)" fill="#606060" stroke="#606060" stroke-miterlimit="10"/><rect x="38.06" y="7.48" width="7.75" height="32.17" rx="2.33" fill="#606060"/><path d="M322.72,628.05a3.59,3.59,0,1,1-3.58-3.59A3.58,3.58,0,0,1,322.72,628.05Z" transform="translate(-277.11 -579.19)" fill="#606060"/><path d="M333.16,638.88a3.87,3.87,0,0,1-3.87-3.86l-.14-51.42a3.89,3.89,0,0,1,3.87-3.88l12.91,0a3.89,3.89,0,0,1,3.89,3.86L350,635a3.88,3.88,0,0,1-3.87,3.88Zm12.78-56.09-12.91,0a.79.79,0,0,0-.78.77l.14,51.42a.78.78,0,0,0,.77.77v0l12.92,0a.78.78,0,0,0,.77-.78l-.13-51.4A.78.78,0,0,0,345.94,582.79Z" transform="translate(-277.11 -579.19)" fill="#606060" stroke="#606060" stroke-miterlimit="10"/><path d="M343.27,616.42a2.34,2.34,0,0,1-2.33,2.33h-3.1a2.33,2.33,0,0,1-2.32-2.33V588.9a2.32,2.32,0,0,1,2.32-2.32h3.1a2.33,2.33,0,0,1,2.33,2.32Z" transform="translate(-277.11 -579.19)" fill="#606060"/><path d="M343.07,628a3.59,3.59,0,1,1-3.59-3.58A3.59,3.59,0,0,1,343.07,628Z" transform="translate(-277.11 -579.19)" fill="#606060"/></svg>