<svg id="b83e73c3-46fe-4734-943b-ea4f309a8370" data-name="2" xmlns="http://www.w3.org/2000/svg" width="508.06" height="512" viewBox="0 0 508.06 512"><title>icon-comment</title><path d="M256,0C115.94,0,2,114,2,254A251,251,0,0,0,44.5,394.7L30.41,462.06A41.44,41.44,0,0,0,86.53,509l61.63-25a254.21,254.21,0,0,0,107.84,24c140.08,0,254-113.95,254-254S396.08,0,256,0Zm0,466.61a211.48,211.48,0,0,1-105.7-28.17L71,470.55l17.86-85.3A211.48,211.48,0,0,1,43.42,254C43.42,136.62,138.59,41.45,256,41.45S468.59,136.62,468.59,254,373.41,466.61,256,466.61Z" transform="translate(-1.97)" fill="#4b4b4b"/></svg>