<svg id="ad808c32-eb55-4493-a890-04be6015f161" data-name="2" xmlns="http://www.w3.org/2000/svg" width="532.13" height="457.35" viewBox="0 0 532.13 457.35"><title>icon-speaker</title><path d="M501.42,355.23l-37.88,4c-5.51.59-12.76-2.53-16.12-6.94L304.26,164.54c-3.36-4.4-8.36-4.09-11.11.72L167.75,384.35c-2.75,4.8-.5,9.29,5,9.94l234.4,28.36c5.5.66,11.86,5.33,14.14,10.38L437,467.73c4.46,9.09,15,7.16,16.88-1.2,0,0,6.2-25.83,19.34-48.79s35.7-47.37,35.7-47.37C515.17,364.52,511.53,354.45,501.42,355.23Z" transform="translate(5.12 -31.37)" fill="none" stroke="#4b4b4b" stroke-miterlimit="10" stroke-width="30"/><polygon points="239.12 98.63 183.28 6.9 165.62 17.84 221.48 109.55 239.12 98.63" fill="#4b4b4b" stroke="#4b4b4b" stroke-miterlimit="10" stroke-width="10"/><polygon points="5.12 318.12 119.64 319 120.12 298.26 5.62 297.37 5.12 318.12" fill="#4b4b4b" stroke="#4b4b4b" stroke-miterlimit="10" stroke-width="10"/></svg>