<svg id="b0953ddb-fe9f-40e7-bd1c-0eb7a76aca93" data-name="ｷｹﾀﾌｾ硺1" xmlns="http://www.w3.org/2000/svg" width="47.72" height="65.94" viewBox="0 0 47.72 65.94"><title>icon-flower</title><path d="M97.24,711.35a1.72,1.72,0,1,1-3.34,0v-12a1.72,1.72,0,1,1,3.34,0Z" transform="translate(-71.4 -682.39)" fill="#606060"/><path d="M114.36,723H76.16a4.77,4.77,0,0,1-4.76-4.76v-2a4.77,4.77,0,0,1,4.76-4.76h38.2a4.77,4.77,0,0,1,4.77,4.76v2A4.77,4.77,0,0,1,114.36,723Zm-38.2-7.48a.77.77,0,0,0-.76.76v2a.77.77,0,0,0,.76.76h38.2a.77.77,0,0,0,.77-.76v-2a.77.77,0,0,0-.77-.76Z" transform="translate(-71.4 -682.39)" fill="#606060"/><path d="M89.75,701.8h0c-10.81,0-14.33-10.73-14.68-16.4a2,2,0,0,1,1.56-2.08,24.3,24.3,0,0,1,5.26-.61c11.72,0,15.58,10.36,16,15.85a2,2,0,0,1-1.36,2A21.6,21.6,0,0,1,89.75,701.8ZM79.28,686.9c.62,3.48,2.84,10.9,10.46,10.9h0a16,16,0,0,0,3.88-.53C93,694,90.49,686.71,81.88,686.71A18.2,18.2,0,0,0,79.28,686.9Z" transform="translate(-71.4 -682.39)" fill="#606060"/><path d="M101.15,701.63a22,22,0,0,1-6.48-1.09,2,2,0,0,1-1.4-2c.31-5.58,4.07-16.13,16.06-16.13a24.77,24.77,0,0,1,4.91.53,2,2,0,0,1,1.6,2.05C115.59,690.73,112.19,701.63,101.15,701.63Zm-3.68-4.47a16.14,16.14,0,0,0,3.68.47c7.84,0,9.95-7.56,10.5-11.09a18.79,18.79,0,0,0-2.32-.15C100.43,686.39,98.07,693.82,97.47,697.16Z" transform="translate(-71.4 -682.39)" fill="#606060"/><path d="M106.31,748.33H85.41a5.43,5.43,0,0,1-5.31-4.69l-2.41-19.49a4.66,4.66,0,0,1,1.1-3.64A4.62,4.62,0,0,1,82.27,719h27.18a4.56,4.56,0,0,1,4.58,5.18l-2.41,19.49A5.43,5.43,0,0,1,106.31,748.33ZM82.27,723a.59.59,0,0,0-.48.19.62.62,0,0,0-.13.5l2.41,19.49a1.46,1.46,0,0,0,1.34,1.18h20.9a1.47,1.47,0,0,0,1.34-1.18l2.41-19.49a.62.62,0,0,0-.13-.5.59.59,0,0,0-.48-.19Z" transform="translate(-71.4 -682.39)" fill="#606060"/></svg>