<svg id="f9cc7f72-c3f6-4193-a612-55807a106a03" data-name="ｷｹﾀﾌｾ硺1" xmlns="http://www.w3.org/2000/svg" width="37.91" height="67.5" viewBox="0 0 37.91 67.5"><title>icon-light</title><path d="M535.12,1154.29a19,19,0,1,1,19-19A19,19,0,0,1,535.12,1154.29Zm0-33.92a15,15,0,1,0,15,15A15,15,0,0,0,535.12,1120.37Z" transform="translate(-516.16 -1106.88)" fill="#606060"/><path d="M544.42,1166a1.81,1.81,0,0,1-1.91,1.69H529.45a1.82,1.82,0,0,1-1.91-1.69h0a1.81,1.81,0,0,1,1.91-1.68h13.06a1.8,1.8,0,0,1,1.91,1.68Z" transform="translate(-516.16 -1106.88)" fill="#606060"/><path d="M544.42,1160.75a1.81,1.81,0,0,1-1.91,1.69H529.45a1.82,1.82,0,0,1-1.91-1.69h0a1.81,1.81,0,0,1,1.91-1.68h13.06a1.8,1.8,0,0,1,1.91,1.68Z" transform="translate(-516.16 -1106.88)" fill="#606060"/><path d="M544,1155.79a1.81,1.81,0,0,1-1.91,1.69H529a1.81,1.81,0,0,1-1.91-1.69h0a1.8,1.8,0,0,1,1.91-1.68h13.06a1.8,1.8,0,0,1,1.91,1.68Z" transform="translate(-516.16 -1106.88)" fill="#606060"/><path d="M529.94,1169.42a6.16,6.16,0,0,0,12.08,0Z" transform="translate(-516.16 -1106.88)" fill="#606060"/><path d="M523.28,1118.93a1.75,1.75,0,0,1-1.24-.51l-3.2-3.2a1.76,1.76,0,0,1,0-2.48,1.74,1.74,0,0,1,2.48,0l3.2,3.2a1.75,1.75,0,0,1-1.24,3Z" transform="translate(-516.16 -1106.88)" fill="#606060"/><path d="M546,1117.72a1.72,1.72,0,0,1-1.25-.52,1.76,1.76,0,0,1,0-2.49l3.22-3.21a1.74,1.74,0,0,1,2.49,0,1.76,1.76,0,0,1,0,2.49l-3.22,3.21A1.72,1.72,0,0,1,546,1117.72Z" transform="translate(-516.16 -1106.88)" fill="#606060"/><path d="M534.51,1114.37a1.76,1.76,0,0,1-1.76-1.77v-4a1.76,1.76,0,0,1,3.52,0v4A1.76,1.76,0,0,1,534.51,1114.37Z" transform="translate(-516.16 -1106.88)" fill="#606060"/></svg>