<svg id="fb893953-ade6-40c0-bf9e-a00bc0d56cf7" data-name="2" xmlns="http://www.w3.org/2000/svg" width="517" height="457.5" viewBox="0 0 517 457.5"><title>icon-heart</title><path d="M373.6,29.7h-2.8C313.7,30.9,276.7,59,256,93.2,235.3,59,198.3,30.9,141.2,29.8h-2.8c-38.6,0-73.6,15.5-98.5,43.5C13.8,102.6,0,143.8,0,192.3c0,95.3,76.4,153.4,150.3,209.6,28.5,21.7,58,44.1,83.5,68.7l1.1,1.5a27.13,27.13,0,0,0,20.3,10.1h1.6A26.93,26.93,0,0,0,277,472.1l1.2-1.6c25.5-24.6,55-47,83.5-68.7C435.6,345.7,512,287.6,512,192.3,512,96.6,455.1,29.7,373.6,29.7Zm-2.2,328c-37.1,29-78.2,57.9-113.7,92.1-.7.7-1.2,1.2-1.7,1.8-.5-.5-1-1.1-1.7-1.8C207,404.2,149.7,368,105.1,328.6,82.8,309,63.7,288.7,50.3,266.5s-21.2-46.2-21.2-74.2c0-44.2,12.8-77.5,32.5-99.7s46.6-33.7,76.7-33.8h2.2c33.8.7,57.8,12.7,75,29.7s27.2,39.6,30.8,61a9.74,9.74,0,0,0,19.2,0c3.6-21.4,13.6-44,30.8-61s41.2-29,75-29.7h2.2c30.2.1,57,11.6,76.7,33.8s32.5,55.4,32.5,99.7c0,28.1-7.8,52-21.2,74.2C441.6,299.8,408.5,328.8,371.4,357.7Z" transform="translate(2.5 -27.2)" fill="#4b4b4b" stroke="#4b4b4b" stroke-miterlimit="10" stroke-width="5"/></svg>